<svg version="1.2" xmlns="http://www.w3.org/2000/svg" viewBox="0 0 333 333" width="333" height="333"><style>.a{fill:#65a5ac}.b{fill:#fff}</style><path fill-rule="evenodd" d="m166.5 327c-88.8 0-160.5-71.7-160.5-160.5 0-88.8 71.7-160.5 160.5-160.5 88.8 0 160.5 71.7 160.5 160.5 0 88.8-71.7 160.5-160.5 160.5zm166.5-160.5c0-92.1-74.4-166.5-166.5-166.5-92.1 0-166.5 74.4-166.5 166.5 0 92.1 74.4 166.5 166.5 166.5 92.1 0 166.5-74.4 166.5-166.5z"/><path  d="m297.2 260.3c-93.4-4.6-107-5.2-107.1-5.2-0.1 0-0.4 0.4-0.7 1-1.6 2.9-4.9 4.8-10 5.6-2.9 0.4-22.5 0.4-25.3 0-2.3-0.4-4.8-1.2-6.2-1.9-1.3-0.8-3-2.4-3.6-3.7-0.3-0.6-0.7-1-0.8-1-0.2 0-23.6 1.1-42.4 2-8.8 0.5-11.4 0.6-35.9 1.8-8.3 0.4-19.8 0.9-29.2 1.4-3.2 0.1-3-4.9-3.1-4.9-0.8 1.5-2.2 0.8 0.1 0.6 3.6-0.2 7.6-0.6 10.7-0.8 24.2-2 54.1-4.2 67.7-5.1 16.4-1 19.3-1.2 28.6-1.2 10.9 0 9.7-0.3 12.8 2.7 2.8 2.6 5.1 3.5 10.1 4.1q4.3 0.5 8.6-0.1c4.8-0.7 6.9-1.6 9.7-4.3 0.8-0.8 1.9-1.7 2.3-1.9 2.8-1.7 31.6-0.2 98.2 5.1 6.3 0.5 12.5 1 18.3 1.5"/><path  d="m161.3 249.7c-20-9.2-37.2-14.3-51.9-15.3-5.8-0.4-8-0.2-22.1 1.9-5.9 0.9-12.5 1.9-14.7 2.2-22.7 3.1-38.6 2.8-48.1-0.8-2.7-1-2.8-1.1-2.8-2 0-0.9 0.6-1.4 9.8-8.2 16-12.1 24.8-18.4 32.1-23.1 2.3-1.5 3.2-2 4-2 1.1 0 1.1 0.1 1.1 1 0 1 0.5 0.6-17 15.2-7.2 6-12.9 10.9-15.4 13.2-1.8 1.7-1.9 1.9-1.4 2.3 0.6 0.6 2.3 1 4.8 1.3 3.9 0.4 14.3-0.8 33.1-3.5 23.6-3.5 23-3.5 29.3-3.6 9.2-0.2 17 0.8 27.3 3.6 11.4 3.1 23.6 8.1 31.8 13.2 1 0.7 2 1.4 2.3 1.7 0.2 0.2 0.7 0.5 1 0.7 0.5 0.1 0.5-1.3 0.4-15.6-0.1-8.7 0-17.3 0.1-19.1l0.2-3.3h1.3l1.2 0.1 0.2 2.6c0.2 1.4 0.2 10 0.2 19-0.1 14.6 0 16.4 0.4 16.2 0.3-0.2 1.4-1 2.5-1.7 7.3-5 21.4-10.9 33.4-14.1 10-2.6 17.5-3.5 26.5-3.3 6.2 0.1 4.9-0.1 31 3.8 17.6 2.6 27.4 3.6 31.4 3.3 2.1-0.2 4.7-0.9 5.1-1.5 0.4-0.4-4.8-4.9-25.1-22-8.3-7-9.1-7.7-9.1-8.6 0-0.8 0.1-0.9 1.1-0.9 0.9 0 1.9 0.5 5.1 2.7 6.9 4.5 15.7 10.8 31.3 22.5 8.8 6.6 9.6 7.3 9.6 8.1 0 0.8-0.2 1-1.9 1.7-6.1 2.4-14.3 3.5-25 3.2-11.4-0.4-19.5-1.3-48-5.7-5.3-0.8-12.9-0.8-18.7 0-13.1 1.9-26.5 6.1-43.7 13.7-5.2 2.4-5.3 2.4-7.6 2.4-2.2 0-2.6-0.2-5.1-1.3z"/><path fill-rule="evenodd" class="a" d="m291.3 161.6c-5.7 0-10.3-4.6-10.3-10.3 0-5.7 4.6-10.3 10.3-10.3 5.6 0 10.2 4.6 10.2 10.3 0 5.7-4.6 10.3-10.2 10.3z"/><path fill-rule="evenodd" d="m106.1 166.2q3-0.6 5.9-0.6 5.1 0 8.3 1.8 3.3 1.6 4.7 4.3 1.4 2.6 1.4 5.5 0 6.6-4.3 11.3-4.4 4.6-11.8 7-7.5 2.3-16.6 2.3-26.5 0-34.3-18.4l4.7-1.2q5.2-1.2 8.8-2.3 3.7-1.2 6.5-2.6 1.6 4.2 4.7 6 3.2 1.8 8.7 1.8 5.9 0 9.6-1.4 3.7-1.3 3.7-4 0-1.4-1.4-2.1-1.5-0.8-4.6-1.1-3.1-0.3-8.7-0.3h-6.3v-14.6h3.8q6.4 0 10.4-0.5 4-0.6 4-2.5 0-2.1-2.2-3.3-2.1-1.4-6.6-1.4-5.8 0-9.5 2.5-3.6 2.4-5.6 7-9-3.6-19.1-5.1 4-9.1 12.3-14 8.4-4.9 21.5-4.9 8.5 0 15.3 2.2 6.9 2.2 10.7 6.1 4 4 4 8.8 0 2.9-1.4 5.1-1.3 2.2-5.2 4.4-4 2.1-11.4 4.2zm68.4-10.7q6.7 0 12.1 2.7 5.5 2.7 8.5 7.3 3.2 4.6 3.2 9.9 0 6.9-4.3 12-4.4 5.1-11.8 7.8-7.5 2.6-16.7 2.6-9.4 0-16.7-3.6-7.3-3.8-11.4-10.4-4.1-6.6-4.1-15.1 0-16.8 9.3-25 9.4-8.3 25.2-8.3 19.3 0 30.4 9.7-5 5.3-9.2 11.8-3.3-2.5-9.4-4-6.1-1.6-10.8-1.6-7.3 0-12.3 3.7-4.9 3.6-6 10.3-0.1 0.5-0.1 1.2 4.1-5.8 10.6-8.4 6.6-2.6 13.5-2.6zm-8.2 26.4q3.2 0 6-0.8 2.8-0.9 4.3-2.4 1.6-1.6 1.6-3.4 0-2.8-3.5-4.7-3.4-2-8.4-2-4.9 0-8.4 2-3.4 1.9-3.4 4.7 0 1.8 1.5 3.4 1.6 1.5 4.4 2.4 2.8 0.8 5.9 0.8zm73.1 15.9q-18 0-26.5-8.3-8.6-8.2-8.6-23 0-14.6 8.6-22.8 8.6-8.3 26.5-8.3 18 0 26.5 8.3 8.5 8.2 8.5 22.8 0 14.8-8.5 23-8.5 8.3-26.5 8.3zm0.1-14.6q7.7 0 11.2-4.7 3.6-4.8 3.6-12 0-7.1-3.6-11.8-3.5-4.8-11.2-4.8-7.9 0-11.5 4.8-3.6 4.7-3.6 11.8 0 7.1 3.6 11.9 3.6 4.8 11.5 4.8z"/><path fill-rule="evenodd" d="m89.5 112.3q-7.8 0-11.4-3.3-3.7-3.3-3.7-9.4 0-6.2 3.7-9.7 3.6-3.6 11.4-3.6 10.9 0 14.6 7.4-3.1 1.1-7.3 3.2-1-1.9-3.1-2.8-2.2-0.9-4.4-0.9-3.3 0-4.9 1.7-1.7 1.7-1.7 4.3 0 2.7 1.8 4.5 1.7 1.7 5.3 1.7 2.9 0 4.6-0.9 1.6-1 2.4-3 2.9 1.5 7.3 3.4-1.8 4.1-5.8 5.8-4 1.6-8.8 1.6zm38.6-25.3h8.1q-0.2 5.8-0.2 12.5 0 6.7 0.2 12.5h-8.1v-9.4h-12.6v9.4h-8.1q0.3-6.7 0.3-12.5 0-5.8-0.3-12.5h8.1v9.4h12.6zm30.7 13v-13.1h8.5v13.7q-0.1 5.1-3.5 8.4-3.3 3.3-11.4 3.3-8.1 0-11.1-3.1-3-3.2-2.9-8.3v-14h8.5v13.4q0 1.5 0.2 2.5 0.3 0.9 1.5 1.8 1.2 0.8 3.9 0.8 3 0 4.4-0.8 1.4-0.9 1.6-1.9 0.3-1.1 0.3-2.7zm39.2-4.7q0 3-1.4 5.1-1.5 2-5 3 0.4 0.5 0.5 0.8l5.6 7.8h-9.3q-1.6-2.9-4.8-8h-5.1v8h-8.1q0.3-6.7 0.3-12.5 0-5.9-0.3-12.5h8.1 7.1q6.9 0 9.7 2.2 2.7 2.3 2.7 6.1zm-14.8-1.7h-4.7v3.9h4.7q2.9 0 4.4-0.1 1.5-0.2 2.1-0.7 0.6-0.4 0.6-1.2 0-0.7-0.6-1.1-0.5-0.4-2.1-0.6-1.5-0.2-4.4-0.2zm33.3 18.7q-7.8 0-11.4-3.3-3.7-3.3-3.7-9.4 0-6.2 3.7-9.8 3.6-3.6 11.4-3.6 10.9 0 14.6 7.5-3.1 1.1-7.3 3.2-1-1.9-3.1-2.8-2.2-1-4.4-1-3.3 0-4.9 1.8-1.7 1.7-1.7 4.3 0 2.7 1.8 4.5 1.7 1.7 5.3 1.7 2.9 0 4.6-0.9 1.6-1 2.4-3.1 2.9 1.5 7.3 3.4-1.8 4.2-5.8 5.9-4 1.6-8.8 1.6zm37.6-25.3h8.1q-0.2 5.8-0.2 12.5 0 6.6 0.2 12.5h-8.1v-9.4h-12.6v9.4h-8.1q0.3-6.7 0.3-12.5 0-5.9-0.3-12.5h8.1v9.3h12.6z"/><path class="b" d=""/></svg>